<svg width="64" height="46" viewBox="0 0 64 46" fill="none" xmlns="http://www.w3.org/2000/svg">
<path d="M7.29289 44.8978C7.68342 45.2883 8.31658 45.2883 8.7071 44.8978L15.0711 38.5338C15.4616 38.1433 15.4616 37.5101 15.0711 37.1196C14.6805 36.7291 14.0474 36.7291 13.6569 37.1196L8 42.7765L2.34314 37.1196C1.95262 36.7291 1.31945 36.7291 0.928931 37.1196C0.538406 37.5101 0.538406 38.1433 0.928931 38.5338L7.29289 44.8978ZM7 0.190674L7 44.1907L9 44.1907L9 0.190674L7 0.190674Z" fill="white"/>
<path d="M31.2929 44.8978C31.6834 45.2883 32.3166 45.2883 32.7071 44.8978L39.0711 38.5338C39.4616 38.1433 39.4616 37.5101 39.0711 37.1196C38.6805 36.7291 38.0474 36.7291 37.6569 37.1196L32 42.7765L26.3431 37.1196C25.9526 36.7291 25.3195 36.7291 24.9289 37.1196C24.5384 37.5101 24.5384 38.1433 24.9289 38.5338L31.2929 44.8978ZM31 0.190674L31 44.1907L33 44.1907L33 0.190674L31 0.190674Z" fill="white"/>
<path d="M55.2929 44.8978C55.6834 45.2883 56.3166 45.2883 56.7071 44.8978L63.0711 38.5338C63.4616 38.1433 63.4616 37.5101 63.0711 37.1196C62.6805 36.7291 62.0474 36.7291 61.6569 37.1196L56 42.7765L50.3431 37.1196C49.9526 36.7291 49.3195 36.7291 48.9289 37.1196C48.5384 37.5101 48.5384 38.1433 48.9289 38.5338L55.2929 44.8978ZM55 0.190674L55 44.1907L57 44.1907L57 0.190674L55 0.190674Z" fill="white"/>
</svg>
