<svg width="23" height="23" viewBox="0 0 23 23" fill="none" xmlns="http://www.w3.org/2000/svg">
<g opacity="0.8">
<g clip-path="url(#clip0_1195_2212)">
<path d="M8.2915 15.6766V19.5416C8.2915 19.8116 8.46484 20.0508 8.7215 20.1358C8.78567 20.1566 8.8515 20.1666 8.9165 20.1666C9.1115 20.1666 9.29983 20.075 9.41983 19.9116L11.6807 16.835L8.2915 15.6766Z" fill="#2FB6E9"/>
<path d="M20.7375 1.11591C20.5459 0.980074 20.2942 0.961741 20.0859 1.07091L1.33587 10.8626C1.1142 10.9784 0.98337 11.2151 1.0017 11.4642C1.02087 11.7142 1.1867 11.9276 1.42254 12.0084L6.63504 13.7901L17.7359 4.29841L9.14587 14.6476L17.8817 17.6334C17.9467 17.6551 18.015 17.6667 18.0834 17.6667C18.1967 17.6667 18.3092 17.6359 18.4084 17.5759C18.5667 17.4792 18.6742 17.3167 18.7017 17.1342L20.9934 1.71757C21.0275 1.48424 20.9292 1.25257 20.7375 1.11591Z" fill="#2FB6E9"/>
</g>
</g>
<defs>
<clipPath id="clip0_1195_2212">
<rect width="20" height="20" fill="white" transform="translate(1 1)"/>
</clipPath>
</defs>
</svg>
