<svg width="32" height="32" viewBox="0 0 32 32" fill="none" xmlns="http://www.w3.org/2000/svg">
<path d="M16 18.6667L15.2929 19.3739L16 20.081L16.7071 19.3739L16 18.6667ZM17 6.66675C17 6.11446 16.5523 5.66675 16 5.66675C15.4478 5.66675 15 6.11446 15 6.66675L17 6.66675ZM8.62627 12.7072L15.2929 19.3739L16.7071 17.9596L10.0405 11.293L8.62627 12.7072ZM16.7071 19.3739L23.3738 12.7072L21.9596 11.293L15.2929 17.9596L16.7071 19.3739ZM17 18.6667L17 6.66675L15 6.66675L15 18.6667L17 18.6667Z" fill="#1279C6"/>
<path d="M6.66663 21.3333L6.66663 22.6666C6.66663 24.1393 7.86053 25.3333 9.33329 25.3333L22.6666 25.3333C24.1394 25.3333 25.3333 24.1393 25.3333 22.6666V21.3333" stroke="#1279C6" stroke-width="2"/>
</svg>
