<svg width="60" height="60" viewBox="0 0 60 60" fill="none" xmlns="http://www.w3.org/2000/svg">
<circle cx="30" cy="30" r="29.5" stroke="white"/>
<g clip-path="url(#clip0_1195_4996)">
<path d="M41.3333 34.5659C39.5625 34.5659 37.8625 34.2877 36.2758 33.7729C35.78 33.6198 35.2275 33.7311 34.8308 34.1068L31.7142 37.1678C27.705 35.1642 24.4183 31.9502 22.3783 28.0126L25.495 24.9377C25.8917 24.562 26.005 24.0194 25.8492 23.5324C25.325 21.9741 25.0417 20.3044 25.0417 18.5652C25.0417 17.7999 24.4042 17.1738 23.625 17.1738H18.6667C17.8875 17.1738 17.25 17.7999 17.25 18.5652C17.25 31.6302 28.0308 42.2185 41.3333 42.2185C42.1125 42.2185 42.75 41.5924 42.75 40.8271V35.9573C42.75 35.1921 42.1125 34.5659 41.3333 34.5659Z" fill="white"/>
</g>
<defs>
<clipPath id="clip0_1195_4996">
<rect width="34" height="33.3929" fill="white" transform="translate(13 13)"/>
</clipPath>
</defs>
</svg>
