<svg width="16" height="16" viewBox="0 0 16 16" fill="none" xmlns="http://www.w3.org/2000/svg">
<path d="M14.6667 10.6147C13.625 10.6147 12.625 10.451 11.6917 10.1482C11.4 10.0581 11.075 10.1236 10.8417 10.3446L9.00833 12.1452C6.65 10.9666 4.71667 9.076 3.51667 6.75978L5.35 4.951C5.58333 4.73001 5.65 4.41082 5.55833 4.12436C5.25 3.20769 5.08333 2.22555 5.08333 1.20249C5.08333 0.752337 4.70833 0.384033 4.25 0.384033H1.33333C0.875 0.384033 0.5 0.752337 0.5 1.20249C0.5 8.88775 6.84167 15.1162 14.6667 15.1162C15.125 15.1162 15.5 14.7479 15.5 14.2977V11.4331C15.5 10.983 15.125 10.6147 14.6667 10.6147Z" fill="white"/>
</svg>
